<?xml version="1.0" encoding="utf-8"?>
<!-- Generator: Adobe Adobe Illustrator 29.1.0, SVG Export Plug-In . SVG Version: 6.00 Build 0)  -->
<svg version="1.1" id="Layer_1" xmlns="http://www.w3.org/2000/svg" xmlns:xlink="http://www.w3.org/1999/xlink" x="0px" y="0px"
	 width="936px" height="289px" viewBox="0 0 936 289" style="enable-background:new 0 0 936 289;" xml:space="preserve">
<style type="text/css">
	.st0{fill:#8179F6;}
	.st1{fill:#5D58F2;}
	.st2{opacity:0.8;fill:#94D6EC;enable-background:new    ;}
	.st3{fill:#94D6EC;}
	.st4{fill:#9690F8;}
</style>
<g>
	<path class="st0" d="M180.9,185.3L234,98.1c4.3-7.4,13.8-9.8,21.2-5.5c7.4,4.3,9.8,13.8,5.5,21.2L207.6,201
		c-4.3,7.4-13.8,9.8-21.2,5.5C179,202.2,176.6,192.7,180.9,185.3z"/>
	<path class="st1" d="M204.4,162l-39.1-70c-4.2-7.4-1.6-16.9,5.8-21.2c7.4-4.3,16.9-1.6,21.1,5.8l39.1,70c4.2,7.4,1.6,16.9-5.8,21.2
		C218.1,172,208.6,169.4,204.4,162z"/>
	<path class="st2" d="M217.9,169.8h-67.1c-8.5,0-15.5-6.9-15.5-15.5c0-8.6,6.9-15.5,15.5-15.5h67.1c8.5,0,15.5,6.9,15.5,15.5
		C233.3,162.8,226.4,169.8,217.9,169.8z"/>
	<path class="st1" d="M159.2,64.7c8.5,0,15.5-6.9,15.5-15.5c0-8.6-6.9-15.5-15.5-15.5c-8.5,0-15.5,6.9-15.5,15.5
		C143.8,57.8,150.7,64.7,159.2,64.7z"/>
	<path class="st3" d="M110.6,169.8c8.5,0,15.5-6.9,15.5-15.5c0-8.6-6.9-15.5-15.5-15.5s-15.5,6.9-15.5,15.5
		C95.2,162.8,102.1,169.8,110.6,169.8z"/>
	<path class="st4" d="M173.8,242.8c8.5,0,15.5-6.9,15.5-15.5c0-8.6-6.9-15.5-15.5-15.5c-8.5,0-15.5,6.9-15.5,15.5
		C158.4,235.9,165.3,242.8,173.8,242.8z"/>
</g>
<path d="M318.5,201.9c-8.1,0-15.5-1.9-22.1-5.6c-6.6-3.8-11.9-9.4-15.7-16.7c-3.9-7.4-5.8-16.3-5.8-26.7c0-10.3,1.9-19.2,5.8-26.5
	c3.9-7.4,9.1-13,15.7-16.7c6.6-3.8,14-5.8,22.1-5.8c13.7,0,23.7,5.2,30.1,15.5h0.4V107H379v91.9h-30.1v-12.5h-0.4
	C342.2,196.7,332.1,201.9,318.5,201.9z M326.8,174.5c6.2,0,11.4-1.9,15.3-5.8c4-4,6-9.2,6-15.7c0-6.5-2-11.7-6-15.5
	c-4-4-9.1-6-15.3-6c-6.1,0-11.2,2-15.1,6c-4,3.8-6,9-6,15.5c0,6.5,2,11.7,6,15.7C315.7,172.5,320.7,174.5,326.8,174.5z"/>
<path d="M426.8,198.9h-30.1V59.7h30.1V198.9z"/>
<path d="M475.5,198.9h-30.1V59.7h30.1V198.9z"/>
<path d="M593.3,107l-61.2,131.7h-30.3l23.1-48.5L483.7,107h34.7l21.5,50.7l22.9-50.7H593.3z"/>
<path d="M706.5,107l-61.2,131.7h-30.3l23.1-48.5L597,107h34.7l21.5,50.7L676,107H706.5z"/>
</svg>
